<svg xmlns="http://www.w3.org/2000/svg" xmlns:xlink="http://www.w3.org/1999/xlink" width="219.49" height="82.65" viewBox="0 0 219.49 82.65"><defs><linearGradient id="a" y1="41.33" x2="219.34" y2="41.33" gradientUnits="userSpaceOnUse"><stop offset="0" stop-color="#f285b5"/><stop offset="0.05" stop-color="#e97fb3"/><stop offset="0.13" stop-color="#d26fac"/><stop offset="0.23" stop-color="#ac54a1"/><stop offset="0.35" stop-color="#783092"/><stop offset="0.36" stop-color="#712b90"/><stop offset="0.51" stop-color="#542a7d"/><stop offset="0.72" stop-color="#312a66"/><stop offset="0.89" stop-color="#1b2958"/><stop offset="1" stop-color="#132953"/></linearGradient></defs><title>encon-logo-sm-no-tag</title><path d="M206.27,5.12V6.8a8.45,8.45,0,0,0-2.34.26c-3.38.87-6.69,3.46-10,7.89l-7.65-9.83H173.65V29.2c0-14-11.13-25.18-26.16-25.18a26.76,26.76,0,0,0-17.59,6.33,27.66,27.66,0,0,1,2.69,3.15l.59.81-.79.61-7.56,5.85c-.19-.29-.38-.58-.56-.87l7.49-5.8C127.44,8.19,121,4,111.1,4,96.43,4,85.61,15,85.5,29.11h0V5H72.14V30.73L52.1,5H27.9C24.68,2.31,21.15.38,17.39,0,14.06-.26,10.46,1.2,7.5,4c-.32.3-.63.62-.92,1H0v48.7H36.15c3.33,3.9,6.8,7.83,10.87,9.64,7.69,3.42,15.35-1.38,22.76-6,2-1.25,4-2.51,6-3.62H85.5V50.08a15.43,15.43,0,0,1,2.15-.15h0c9.06,0,16.89,8.18,24.46,16.08,6.82,7.11,13.86,14.45,22,16.22a17.94,17.94,0,0,0,3.88.42c7,0,14.74-3.91,23.53-11.87,2.42-2.19,4.84-4.57,7.17-6.86,3.55-3.49,7.17-7,10.95-10.1H187v-5c5.4-2.94,10.32-3.68,14.55-3.05l6.32,8.1h11.76V5.12ZM52.87,27,63,39.91a19.46,19.46,0,0,1-6.68-2.68,28.1,28.1,0,0,1-3.42-2.55Zm0,8.38A27.4,27.4,0,0,0,56,37.67a20,20,0,0,0,7.43,2.85l1,1.25A18.87,18.87,0,0,1,56,39a24.74,24.74,0,0,1-3.09-2.19Zm0,2.13a26,26,0,0,0,2.83,2,19.6,19.6,0,0,0,9.16,2.86l.77,1a18.21,18.21,0,0,1-10-2.51A25,25,0,0,1,52.87,39Zm0,2.11a24.46,24.46,0,0,0,2.5,1.65A18.81,18.81,0,0,0,66,43.8l.63.81a18,18,0,0,1-11.36-2A24.19,24.19,0,0,1,52.87,41Zm0,2.08c.73.5,1.46,1,2.18,1.36a18.45,18.45,0,0,0,12,2l.59.75A17.87,17.87,0,0,1,55,44.35c-.69-.36-1.39-.78-2.09-1.24Zm0,2.06q.93.6,1.86,1.08A18.31,18.31,0,0,0,68,46.27l.44.57a17.86,17.86,0,0,1-13.76-.71c-.59-.29-1.17-.61-1.76-1Zm0,2c.51.3,1,.58,1.54.84a18.41,18.41,0,0,0,14.32.67l.4.51a17.94,17.94,0,0,1-14.83.13c-.48-.22-1-.46-1.43-.72Zm0,2c.4.22.81.42,1.22.61a18.47,18.47,0,0,0,15.37-.18l.29.38C64.39,51.31,58.84,51.76,54,49.69c-.37-.15-.74-.33-1.1-.51Zm0,2,.9.42c5,2.14,10.78,1.66,16.3-1.18l.26.34c-5.69,3.35-11.54,4.15-16.7,2.14l-.76-.32Zm0,2c.19.09.39.17.58.24C58.78,54,64.8,53.2,70.65,49.74l.21.26c-6.07,4-12.17,5.16-17.56,3.25l-.43-.16Zm0,2v0l.26.1c5.56,2,11.83.77,18-3.34l.17.21C64.87,55.19,58.45,56.76,53,55a18.54,18.54,0,0,1-3.13-1.34Zm-4.08,0a18.77,18.77,0,0,0,4,1.83c5.65,1.79,12.24.18,18.84-4.51l.15.2c-7,5.28-13.49,7.17-19.17,5.6a17.13,17.13,0,0,1-4.38-1.92c-.59-.36-1.17-.77-1.74-1.2Zm-3.11,0A22,22,0,0,0,48,55.33a17.81,17.81,0,0,0,4.51,2c5.85,1.61,12.44-.31,19.63-5.7l.15.2c-7.73,5.9-14.27,8.11-20,6.78A16.09,16.09,0,0,1,48,56.88a23.47,23.47,0,0,1-4.21-3.19Zm-2.65,0a24.9,24.9,0,0,0,4.71,3.64,16.66,16.66,0,0,0,4.44,1.76c5.86,1.37,12.54-.88,20.41-6.88l.19.24-1.29.94c-5.45,3.94-12.6,8.29-19.53,7a15.3,15.3,0,0,1-4.22-1.49,25.9,25.9,0,0,1-6.4-5.19Zm-2.39,0a27,27,0,0,0,6.86,5.64,15.35,15.35,0,0,0,4.36,1.54c7.12,1.35,14.39-3.06,19.93-7.06l1.3-1,.27.34-1.3.88-1.54,1c-5.74,3.89-12.4,8-18.9,7a13.8,13.8,0,0,1-4.14-1.28c-3-1.5-5.77-4.17-8.43-7.18h1.59Zm-25-29.85a9.73,9.73,0,0,1,3.3-.68,9.33,9.33,0,0,1,2.26.21,12.6,12.6,0,0,1,1.59.47Zm1.14,10.65a11,11,0,0,0-3.12,1.89l-.3.27V34.49Zm4.53-11.62a10.34,10.34,0,0,0-2.38-.23,10.57,10.57,0,0,0-4.54,1.2h-1V22a10.67,10.67,0,0,1,5-1.66,10,10,0,0,1,2.34.17,17,17,0,0,1,6.77,3.32H24.13A14,14,0,0,0,21.31,22.87ZM20.82,20a10,10,0,0,0-2.46-.18,10.91,10.91,0,0,0-5,1.57V19a10.7,10.7,0,0,1,4.46-1.43,9.69,9.69,0,0,1,2.42.12c3.81.69,7.27,3.22,10.26,6.17H28.32A17.87,17.87,0,0,0,20.82,20Zm-.49-2.86A9.8,9.8,0,0,0,17.78,17a11,11,0,0,0-4.42,1.35v-2h10.9A32.78,32.78,0,0,1,33,23.84H31.22C28.09,20.68,24.42,17.91,20.33,17.16ZM33.11,34.49c.63.71,1.24,1.42,1.81,2.11.72.87,1.43,1.76,2.14,2.65l.53.67,1.83,2.29H38l-.39-.48-.22-.27c-.69-.86-1.38-1.72-2.09-2.57-1.23-1.48-2.55-3-4-4.4Zm5,1,1.37,1.77V39l-1.27-1.62-.74-.93c-.56-.72-1.06-1.35-1.52-1.91h1.4Zm-.11-1h1.34l.14.18v1.72l-1-1.25Zm-.93,2.23.74.93c.55.71,1.11,1.42,1.67,2.12v1.74L38,39.6l-.53-.67c-.71-.89-1.43-1.79-2.15-2.66-.49-.59-1-1.19-1.51-1.78h1.52C35.85,35.14,36.43,35.86,37.1,36.72ZM39.51,16.4v2L38,16.4Zm-2.1,0,0,0c.69.95,1.38,1.9,2.07,2.87V21c-.57-.78-1.13-1.56-1.7-2.33s-1.17-1.56-1.73-2.27Zm-2,0c.62.8,1.27,1.65,2,2.58s1.41,1.92,2.11,2.89v1.7L37.76,21.2C36.85,20,36,18.9,35.21,17.9q-.59-.73-1.23-1.5Zm-2.13,0c.53.62,1,1.23,1.5,1.82.81,1,1.64,2.08,2.55,3.29l1.72,2.33H37.8l-.08-.11c-.9-1.19-1.72-2.24-2.5-3.21-1-1.3-2.25-2.72-3.58-4.12Zm-2.38,0c1.46,1.5,2.77,3.05,3.9,4.45.73.9,1.49,1.88,2.33,3H35.8l-.56-.69a54.42,54.42,0,0,0-6.33-6.75Zm-2.83,0a51.23,51.23,0,0,1,6.74,7.07l.3.37h-1.5A36,36,0,0,0,25.3,16.4ZM7.28,5c.18-.2.37-.39.57-.58A12.5,12.5,0,0,1,17.34.55,18.58,18.58,0,0,1,27.09,5h-3a16,16,0,0,0-6.24-2.1A10.12,10.12,0,0,0,14.93,3a12.92,12.92,0,0,0-4.7,2ZM15,3.53a10.2,10.2,0,0,1,2.8-.13A15,15,0,0,1,23,5H11.14A12.45,12.45,0,0,1,15,3.53Zm7.65,38.68a8.51,8.51,0,0,0-3.26,0H14.75A8.5,8.5,0,0,1,22.28,40a11.61,11.61,0,0,1,1.81.51,15.75,15.75,0,0,1,3.19,1.73Zm5.5,0A16.93,16.93,0,0,0,24.27,40a11.89,11.89,0,0,0-1.89-.54,9.31,9.31,0,0,0-7.28,1.82,9.47,9.47,0,0,0-1.08.93h-.66V40.53a9.6,9.6,0,0,1,8.37-3.36,10.12,10.12,0,0,1,1.88.46,19.81,19.81,0,0,1,6.85,4.58Zm3,0a20.86,20.86,0,0,0-7.43-5.06,10.14,10.14,0,0,0-2-.49,9.68,9.68,0,0,0-7.42,2.17,10,10,0,0,0-1,.93V37.38a10.52,10.52,0,0,1,5.28-2.89H22a9.67,9.67,0,0,1,1.18.29c3.63,1.16,6.88,4.1,9.87,7.43Zm2.48,0c-3-3.35-6.21-6.37-9.84-7.72h3.72A45.12,45.12,0,0,1,35,41.85l.29.36Zm2.23,0-.57-.69a47.5,47.5,0,0,0-6.93-7h2.22a57.85,57.85,0,0,1,4.3,4.74c.7.84,1.4,1.7,2.09,2.56l.21.26.13.16Zm33.6,14.66c-7.63,4.78-14.84,9.3-22.29,6-3.85-1.71-7.19-5.43-10.4-9.17h1.55c2.8,3.2,5.64,6.05,8.89,7.64a14.43,14.43,0,0,0,4.29,1.33c6.68,1,13.44-3.17,19.25-7.11l1.54-1,1.34-.9.06.08h1C73,54.69,71.24,55.79,69.51,56.87Zm107.49-3c-2.52,2.33-5,4.84-7.41,7.28s-4.68,4.75-7.07,7c-10.17,9.48-19.05,13.22-27.17,11.42-4.38-1-8.76-3.58-13.78-8.22-2.75-2.54-5.46-5.47-8.09-8.3s-5.06-5.45-7.65-7.88c-.41-.39-.82-.76-1.22-1.12a26.06,26.06,0,0,0,3.89.61c1.89,2,3.77,4,5.6,6.08,2.64,2.94,5.37,6,8.17,8.62,5,4.68,9.58,7.45,14.11,8.47a19.22,19.22,0,0,0,4.22.47c7.31,0,15.23-4.06,23.61-12.1,2.38-2.28,4.74-4.75,7-7.13,1.64-1.72,3.32-3.47,5-5.17Zm-65.76-12.1.55.6c-.27,0-.55,0-.83,0a11.72,11.72,0,0,1-2.55-.28,31.08,31.08,0,0,0-7.06-5.19,13.49,13.49,0,0,1-1.47-3.45C103.46,34.62,107.22,37.36,111.24,41.72ZM99.73,32.84a15.21,15.21,0,0,1-.37-2.73c4.1.81,8.47,3.77,13,8.86.81.91,1.62,1.86,2.42,2.83a11.67,11.67,0,0,1-2.38.47l-.82-.9C107.42,36.82,103.49,34,99.73,32.84Zm7.6,8.92a11,11,0,0,1-5.36-4A30.74,30.74,0,0,1,107.33,41.76Zm68.2,12.06c-1.58,1.58-3.14,3.21-4.67,4.81-2.27,2.38-4.63,4.85-7,7.12-9.89,9.49-19.1,13.36-27.37,11.5-4.44-1-9-3.73-13.87-8.35-2.79-2.63-5.51-5.66-8.14-8.59-1.71-1.9-3.46-3.84-5.23-5.68.45,0,.9,0,1.36,0s1,0,1.54,0c1,1.12,2,2.26,2.95,3.37,2.64,3,5.38,6.19,8.21,8.91,4.9,4.73,9.55,7.55,14.2,8.61a19.63,19.63,0,0,0,4.34.48c9.25,0,17.82-6.38,23.71-12.2,2.36-2.33,4.71-4.86,7-7.31.82-.88,1.64-1.78,2.48-2.66Zm-1.69.14.12-.14h.34l-2.14,2.31c-2.26,2.44-4.6,5-7,7.29-6.7,6.63-16.93,14-27.57,11.59-4.56-1-9.13-3.82-14-8.48-2.81-2.71-5.54-5.84-8.18-8.88-.88-1-1.77-2-2.68-3.06.85-.05,1.68-.14,2.47-.25l.84,1c2.65,3.14,5.38,6.39,8.23,9.19,4.86,4.77,9.54,7.63,14.31,8.74a20,20,0,0,0,4.52.51c6.06,0,14.21-2.64,23.74-12.32C169.26,59.07,171.59,56.47,173.84,54Zm-43.05-7c-.39.43-.78.85-1.18,1.25a25.61,25.61,0,0,0,6.94,4.33,27.67,27.67,0,0,0,10,5,22.86,22.86,0,0,0,5.69.71c7.46,0,15-3.55,21.37-10.09v.07c-8.22,9.29-18.62,13.41-28.07,11.05C140.41,58,135.35,54.78,131,49.93c-.71-.78-1.4-1.59-2.08-2.42.44-.44.85-.89,1.25-1.35Zm-.33-1.19c.4-.47.79-1,1.16-1.45.23.27.45.54.68.8-.38.5-.77,1-1.17,1.45Zm17.26,9.56a23.89,23.89,0,0,0,5.92.74c7,0,14-3.07,20-8.78v.16c-7.91,8.36-17.78,11.94-26.94,9.62a26.32,26.32,0,0,1-8.35-3.85,27.77,27.77,0,0,0,7,1.37A23.13,23.13,0,0,0,147.72,55.33Zm-.5-.67h.13a28.15,28.15,0,0,0,6.77-.81c.3,0,.59,0,.89,0,6.55,0,13-2.63,18.64-7.56v.27c-7.6,7.44-17,10.51-25.8,8.25Zm-16.65-4.38c4.47,4.92,9.62,8.22,14.88,9.53a22.42,22.42,0,0,0,5.46.67c7.83,0,15.89-4,22.58-11.28l-.23.28C164.65,59.55,154.15,64,144.44,61.56c-5.14-1.27-10-4.39-14.54-9.26-.93-1-1.85-2.09-2.75-3.2.47-.4.92-.81,1.36-1.23C129.18,48.7,129.87,49.5,130.57,50.28Zm-1,2.37c4.57,5,9.55,8.11,14.79,9.41a22.39,22.39,0,0,0,5.39.65c8,0,16.14-4.18,23.13-12l-.93,1.07c-8.72,9.93-19.15,14.3-28.61,12-5-1.23-9.89-4.3-14.44-9.13-1.22-1.3-2.41-2.7-3.58-4.15.51-.35,1-.71,1.48-1.1C127.66,50.54,128.59,51.63,129.53,52.65Zm-1,2.38c4.62,4.9,9.56,8,14.69,9.27a22,22,0,0,0,5.17.62c8.16,0,16.65-4.47,23.94-12.77l1.14-1.32c-.94,1.12-1.9,2.23-2.86,3.3-8.85,9.78-19.2,14.13-28.4,11.91-4.94-1.19-9.76-4.22-14.35-9-1.57-1.63-3.09-3.43-4.57-5.28.55-.3,1.09-.62,1.61-.95C126,52.28,127.25,53.7,128.49,55Zm-1,2.37c4.65,4.85,9.56,7.93,14.59,9.14a21,21,0,0,0,4.94.58c8,0,16.53-4.43,24-12.64.91-1,1.81-2.06,2.7-3.12v.07c-1.45,1.71-2.93,3.42-4.42,5-9.1,9.79-19.12,14-28.2,11.83-4.82-1.15-9.62-4.13-14.25-8.87-2-2-3.9-4.29-5.76-6.6.61-.25,1.2-.52,1.76-.81C124.3,53.89,125.85,55.73,127.46,57.4Zm-1,2.38c4.7,4.8,9.57,7.83,14.5,9a20.9,20.9,0,0,0,4.86.57c7.89,0,16.18-4.33,23.82-12.54,1.37-1.48,2.72-3,4.05-4.59v.15c-1.88,2.17-3.81,4.37-5.76,6.41-9.23,9.64-19.17,13.81-28,11.74-4.72-1.1-9.49-4-14.16-8.74-2.48-2.47-4.86-5.32-7.17-8.14.68-.19,1.32-.41,2-.64C122.42,55.36,124.38,57.7,126.42,59.78Zm-1,2.37c4.74,4.76,9.59,7.75,14.4,8.87a20.09,20.09,0,0,0,4.64.54c7.75,0,16.05-4.29,23.83-12.43,1.83-1.91,3.63-4,5.4-6v.25l-.19.21c-2.25,2.51-4.57,5.11-6.91,7.49-12,12.18-21.73,13.06-27.79,11.66-4.67-1.08-9.27-3.89-14.06-8.6-2.83-2.78-5.56-6-8.2-9.16-.21-.25-.43-.5-.64-.76.75-.13,1.47-.28,2.17-.46A110.73,110.73,0,0,0,125.38,62.15Zm48.27-32.81v14.1a28.5,28.5,0,0,1-7.89,4.16A24.87,24.87,0,0,0,173.65,29.34Zm-8.82,19.09a28.48,28.48,0,0,0,8.82-4.36v.51A28.68,28.68,0,0,1,162,50.49,26.22,26.22,0,0,0,164.83,48.43Zm8.82-3.19v.38c-5.32,4.79-11.46,7.47-17.69,7.72a26.2,26.2,0,0,0,4.72-2.05A28.54,28.54,0,0,0,173.65,45.24ZM135,29.2c0-7,4.94-13,12.38-13s12.45,6,12.45,13.15v.14c0,7-4.93,13-12.31,13S135,36.36,135,29.34ZM132.7,42.83l.85.6-.61.84-.32.44-.68-.81.16-.23-.81-.58c-.69-.88-1.37-1.79-2-2.72ZM128,39.47c.61.88,1.24,1.75,1.88,2.6l-4.44-3.16c-.53-.76-1.05-1.53-1.57-2.29l-.11-.17Zm-4.13-19.25c.19.28.38.57.56.86l-1.52,1.18c-.19-.29-.39-.57-.58-.85ZM121.6,22l.31-.24.59.85-.27.21L122,23c-.15.59-.28,1.19-.4,1.79-.62-.88-1.25-1.76-1.9-2.59a38.46,38.46,0,0,0-4.84-5.27A15,15,0,0,1,121.6,22ZM111,16.26a12.68,12.68,0,0,1,2.75.29,37.3,37.3,0,0,1,5.6,5.91c.74,1,1.47,2,2.18,3a25.1,25.1,0,0,0-.28,3q-1.3-1.86-2.65-3.59c-3.51-4.44-6.71-7-9.54-8.46A11.11,11.11,0,0,1,111,16.26Zm-2.77.34c2.91,1.32,6.26,3.92,10,8.61,1,1.32,2,2.71,3,4.14v.13a25.39,25.39,0,0,0,.26,3.62c-1.32-1.88-2.67-3.74-4.06-5.46-3.2-4-7.68-8.27-12.66-9.48A10.7,10.7,0,0,1,108.19,16.6Zm-4,2c5,1,9.58,5.4,12.81,9.4,1.61,2,3.15,4.15,4.66,6.33,0,.26.1.53.16.79l.73.51h0l.9,1.31.77,1.14L122,36.43l-.61.73c-1.65-2.33-3.34-4.66-5.1-6.78-3.54-4.27-8.64-9-14.22-9.6A11.71,11.71,0,0,1,104.19,18.56Zm-2.51,2.7c5.53.48,10.63,5.19,14.17,9.45,1.78,2.14,3.48,4.49,5.14,6.84-.45.49-.9,1-1.37,1.39-1.47-2-3-4-4.53-5.81-5.1-6-10-9.17-14.68-9.51A13,13,0,0,1,101.68,21.26Zm-1.46,2.86c4.55.27,9.41,3.4,14.48,9.35,1.55,1.82,3.06,3.8,4.54,5.81a13.61,13.61,0,0,1-1.58,1.19c-1.22-1.59-2.46-3.14-3.73-4.6-5-5.72-9.82-8.84-14.36-9.33A14.86,14.86,0,0,1,100.22,24.12Zm-.88,5.08a15.22,15.22,0,0,1,.15-2.15c4.42.46,9.13,3.53,14.06,9.17,1.25,1.42,2.47,3,3.68,4.52a11.27,11.27,0,0,1-1.89.89c-.85-1-1.7-2.05-2.57-3-4.68-5.21-9.18-8.24-13.43-9V29.2ZM85.5,32.76l.17-.22v.1l-.18.21Zm0,.89.27-.32c0,.09,0,.19,0,.29s-.21.23-.31.34Zm0,1.07.42-.46.09.51-.51.49Zm0,1.25.63-.62.18.73-.81.67Zm0,1.45c.31-.27.63-.54,1-.79q.14.48.3,1c-.42.27-.84.55-1.25.84Zm0,1.65c.47-.35.94-.67,1.41-1,.15.42.3.83.47,1.24a18.8,18.8,0,0,0-1.88,1Zm0,1.84a18.86,18.86,0,0,1,2.07-1.11c.23.53.47,1,.73,1.54a17.54,17.54,0,0,0-2.8,1Zm0,2a17.45,17.45,0,0,1,3-1.13c.36.67.75,1.31,1.17,1.94a15.33,15.33,0,0,0-4.21.87Zm0,2.22a15,15,0,0,1,4.32-.91h.23a24.86,24.86,0,0,0,2.16,2.64,15.14,15.14,0,0,0-3.47-.31A15.5,15.5,0,0,0,85.5,47Zm82.84,18.4c-2.34,2.29-4.75,4.66-7.16,6.85-10.31,9.33-19.13,13-27,11.33s-15-9-21.71-16.08c-7.65-8-15.56-16.22-24.83-16.24h0a17.13,17.13,0,0,0-2.15.15v-2a14.93,14.93,0,0,1,7.36,0,24.69,24.69,0,0,0,10.64,6.14c.65.56,1.31,1.15,2,1.78,2.58,2.41,5.15,5.18,7.63,7.86,2.63,2.83,5.35,5.76,8.12,8.32,5.09,4.7,9.54,7.35,14,8.34a18.89,18.89,0,0,0,4.11.45c7.15,0,14.88-4,23.51-12,2.39-2.23,4.78-4.65,7.08-7,2.54-2.57,5.16-5.22,7.81-7.64h1.07C175.21,56.8,171.74,60.21,168.34,63.55ZM187,29.11c.25-.36.49-.72.74-1.07l.09.12-.14.18-.69.91Zm0,1,1.09-1.47.06-.08.21.26c-.45.52-.9,1.07-1.36,1.63Zm0,1.17.19-.24c.5-.63,1-1.23,1.49-1.8l.32.41c-.66.67-1.32,1.39-2,2.16Zm0,1.31c.79-.91,1.56-1.76,2.32-2.54l.44.56c-.91.81-1.82,1.7-2.76,2.68Zm0,1.45c1.05-1.12,2.07-2.12,3.07-3l.56.71A43.32,43.32,0,0,0,187,34.89Zm0,1.56a44,44,0,0,1,3.94-3.46l.69.87c-.44.28-.89.58-1.33.9a41.39,41.39,0,0,0-3.3,2.66Zm0,1.66a39.3,39.3,0,0,1,3.6-2.93c.45-.32.9-.63,1.35-.91l.82,1a28,28,0,0,0-3.17,1.9c-.85.59-1.72,1.25-2.6,2ZM187,39c1-.81,1.94-1.55,2.89-2.21a28.39,28.39,0,0,1,3.2-1.91l1,1.24a26.9,26.9,0,0,0-5.15,2.71c-.63.42-1.27.87-1.91,1.35Zm0,1.83c.74-.57,1.47-1.09,2.19-1.57a25.91,25.91,0,0,1,5.2-2.71L195.52,38a25.48,25.48,0,0,0-7.31,3.3c-.4.25-.8.52-1.21.8Zm0,1.89c.5-.35,1-.68,1.48-1a25,25,0,0,1,7.38-3.29l1.29,1.66-.29,0a25.25,25.25,0,0,0-9.35,3.62l-.51.32Zm0,2,.78-.49a24.76,24.76,0,0,1,9.16-3.55l.58-.09L199,42.45a20.48,20.48,0,0,0-2.67.23A26.39,26.39,0,0,0,187,46.11Zm13.52.36A24.82,24.82,0,0,0,187,48.19V46.71l.08-.05a25.87,25.87,0,0,1,9.31-3.47,20.62,20.62,0,0,1,3-.23l1.68,2.14Zm5.75-14.58-.4-.13-2-2.56a13.59,13.59,0,0,1,2.39.54Zm0-2.69a12.79,12.79,0,0,0-2.83-.56l-1.6-2.06a12.2,12.2,0,0,1,4.43.52Zm0-2.65a12.71,12.71,0,0,0-4.81-.45L200.14,23l.63-.15a11.84,11.84,0,0,1,5.5.17Zm0-2.67a12.14,12.14,0,0,0-5.6-.13l-.87.21-1.1-1.41a14.21,14.21,0,0,1,2.62-.84,11,11,0,0,1,5,.07Zm0-2.63a11.61,11.61,0,0,0-5.05,0,15,15,0,0,0-2.85.93l-.9-1.16a14.76,14.76,0,0,1,4.4-1.81,10.2,10.2,0,0,1,4.4,0Zm0-2.63a10.72,10.72,0,0,0-4.51,0,15.38,15.38,0,0,0-4.61,1.9l-.73-.94a15.73,15.73,0,0,1,6-3,9.83,9.83,0,0,1,3.85-.12Zm0-2.65a10.66,10.66,0,0,0-4,.14,16.34,16.34,0,0,0-6.19,3.11l-.57-.73A16.72,16.72,0,0,1,203,12.65a9.16,9.16,0,0,1,3.31-.15Zm0-2.57a9.53,9.53,0,0,0-3.42.17,17,17,0,0,0-7.63,4.51l-.41-.53c.47-.54.95-1,1.42-1.51a16,16,0,0,1,7.28-4.51,8.18,8.18,0,0,1,2.76-.2Zm0-2.61a8.83,8.83,0,0,0-2.88.24,16.56,16.56,0,0,0-7.52,4.64q-.69.69-1.38,1.47l-.27-.35c3.3-4.4,6.54-7,9.84-7.81a8.62,8.62,0,0,1,2.21-.27Z" fill="url(#a)"/></svg>