<svg xmlns="http://www.w3.org/2000/svg" width="1393" height="388.99" viewBox="0 0 1393 388.99"><title>website-wave</title><path d="M1316.84,106.56c-17.74,2.54-35.68,8.68-53.32,18.23-14.87,8-30,18.48-46.1,32-13,10.87-25.61,22.66-37.81,34.06-14.8,13.83-30.1,28.13-46.28,41a278.87,278.87,0,0,1-95,49.21,256.41,256.41,0,0,1-71.26,10.27,233.22,233.22,0,0,1-34.92-2.59c-38-5.79-75.25-21.38-107.64-45.1-19.89-14.58-38.08-31.85-55.68-48.54-14.38-13.64-29.24-27.74-44.89-40.23-29.8-23.72-75.34-50.39-123-42.75-35.59,5.7-62.16,28.74-90.3,53.14-12,10.39-24.37,21.14-37.45,30.34-37,26-81.13,39.8-123.26,39.81a175.68,175.68,0,0,1-52.54-7.79,199.38,199.38,0,0,1-41.18-18.43c-24.78-14.47-47.3-33.94-69.07-52.78-2.93-2.53-5.86-5.07-8.79-7.59-8.89-7.63-16.26-13.73-23.19-19.19C105.76,90.76,73.49,83.39,53.51,81.22A102.4,102.4,0,0,0,39,80.7,106.87,106.87,0,0,0,0,89.9v13A105.42,105.42,0,0,1,42.66,92.62a102.06,102.06,0,0,1,14.25.7c31.32,3.76,62,18.55,99.42,48C163,146.56,170,152.32,179,160c2.21,1.88,4.41,3.77,6.63,5.65,22,18.78,44.7,38.19,69.79,52.2a191.73,191.73,0,0,0,40.26,17c26.92,7.83,57.25,8.72,87.71,2.59a231.72,231.72,0,0,0,83.09-35c12.5-8.47,24.46-18.27,36-27.74,28.46-23.31,55.33-45.33,90.8-50.5,38.18-5.58,79.64,8.73,123.23,42.53,15.81,12.32,30.9,26.21,45.49,39.65,17.59,16.2,35.79,33,55.48,47.16,33.05,23.8,68.9,38.76,106.57,44.46,34.13,5.17,69.43,2.51,104.92-7.88a288.41,288.41,0,0,0,94.32-48.36c16.26-12.57,31.79-26.47,46.8-39.92,13-11.63,26.4-23.64,40.2-34.71,16.76-13.43,32.35-23.82,47.64-31.77,18.13-9.45,36.56-15.53,54.8-18.06,29.69-4.12,58.6,2.19,80.21,16.48V122.2C1372.39,108.64,1344.77,102.56,1316.84,106.56Z" fill="#132953"/><path d="M1309,130a176.38,176.38,0,0,0-55.62,17.69c-15.62,7.82-31.61,18.07-48.88,31.34-14.59,11.22-28.82,23.46-42.59,35.3-15.22,13.09-31,26.62-47.33,38.92-50.5,38-109.3,58.45-165.63,58.45a223.63,223.63,0,0,1-33.22-2.45c-37.06-5.58-72.85-20.45-106.37-44.19-19.57-13.88-37.79-30.17-55.41-45.91-14.79-13.22-30.08-26.88-46-39-43.36-32.76-84.38-46.88-121.91-41.93-34.85,4.59-61.88,25.43-90.51,47.49-11.11,8.56-22.6,17.42-34.54,25.19-38.88,25.23-82.8,38.63-123.79,38.63A169.46,169.46,0,0,1,293.53,244a185.48,185.48,0,0,1-39.77-15.8c-25.57-13.62-48.58-33-70.84-51.8l-4.46-3.76c-6-5.08-14-11.74-22.16-18.13-24.57-19.27-57.71-42-96.23-47.13a102.26,102.26,0,0,0-13.73-.87A102.51,102.51,0,0,0,0,118.22v13.16a101.25,101.25,0,0,1,50-12.93,102.39,102.39,0,0,1,13.5,1c37.36,5.42,69.86,27.8,94,46.7,7.59,6,14.9,12,21.67,17.62l2.29,1.91c22.45,18.7,45.66,38,71.55,51.13a177.1,177.1,0,0,0,38.84,14.4c49.7,12,108.94-.22,162.53-33.53,11.23-7,22.13-14.87,32.68-22.49,29.1-21,56.59-40.87,91.44-44.94,38-4.43,77.88,9.21,122.06,41.72,16.13,11.91,31.67,25.39,46.71,38.42,17.58,15.24,35.77,31,55.12,44.49,33.74,23.49,69.18,38.15,105.31,43.57,63.9,9.57,135.68-10.61,197-55.37,16.41-12,32.3-25.13,47.67-37.84,14.6-12.07,29.7-24.55,45.16-36,17.87-13.18,34.36-23.36,50.42-31.11A186.31,186.31,0,0,1,1305,140.69c32.85-4.26,64.52,2.74,88,18.61V147.85C1370.54,132.67,1340.05,125.82,1309,130Z" fill="#132953"/><path d="M1285.55,200.23a235.47,235.47,0,0,0-62.5,16.07c-18,7.3-36.73,16.92-57.21,29.4-19.86,12.12-39.42,25.65-58.33,38.74-16,11-32.45,22.45-49.09,33C1000.31,354.25,945.49,372.8,895,372.8a197.4,197.4,0,0,1-28.49-2c-33.07-4.82-65.66-18-102.55-41.46-18.09-11.51-35.78-24.57-52.89-37.19-16.6-12.24-33.75-24.89-51.09-36-44.21-28.25-81.87-40.79-118.55-39.49-36.4,1.29-68.73,17-103,33.55q-7,3.39-14,6.75c-45.5,21.58-94.24,40.92-142.42,36.36a146,146,0,0,1-35.54-7.89c-25.38-9.12-47.33-25.34-67.63-41.17-2.71-2.1-5.4-4.22-8.1-6.34q-5.49-4.32-11-8.59c-24-18.61-50.36-36.75-80-43.35A104,104,0,0,0,68.25,184C44.37,181.46,16.89,189.41,0,206.8v14.42a67.85,67.85,0,0,1,22.3-17.17A89.19,89.19,0,0,1,72,196a108.09,108.09,0,0,1,11.26,2.1C113.05,205.24,139,224,161,241c2.67,2.06,5.33,4.14,8,6.22q5.26,4.11,10.56,8.19c18.68,14.34,40.73,30.33,66.06,38.6a138.31,138.31,0,0,0,34.58,6.53c44.46,2.69,88.69-15.08,137.77-36.82l4.75-2.1c35.65-15.84,72.5-32.21,111.25-32.89,37.2-.63,73.73,11.45,118.54,39.24,17.74,11,35.37,23.59,52.42,35.74,16.87,12,34.32,24.47,52,35.5,37.25,23.24,69.51,36.23,101.53,40.87,56.83,8.24,119-9,190.06-52.75,16.71-10.28,33.33-21.42,49.41-32.18,19.76-13.24,40.2-26.93,61-39.14,21-12.38,40.26-21.92,58.73-29.15a248,248,0,0,1,63.91-15.87c42.71-4.58,81.68,3.67,111.47,23.32V223.13C1364.43,203.75,1326.92,195.65,1285.55,200.23Z" fill="#132953"/><path d="M1301.19,153.39a194.59,194.59,0,0,0-57.91,17.16c-16.39,7.64-33.29,17.67-51.65,30.69-16.31,11.58-32.27,24.28-47.72,36.57s-31.56,25.12-48,36.83c-29.37,20.85-61.74,36.94-93.61,46.5A247.68,247.68,0,0,1,931,332.06a213.77,213.77,0,0,1-31.61-2.32c-35.5-5.29-70.86-19.85-105.1-43.28-19.19-13.15-37.36-28.41-54.93-43.17-15.27-12.83-31.06-26.1-47.35-37.81C648,174,608.52,160.57,571.18,164.36c-34.44,3.5-62.29,22.26-91.78,42.11-9.89,6.67-20.12,13.56-30.57,19.78C407,251.1,363.94,264,324.48,264a165.5,165.5,0,0,1-34.77-3.59,173.92,173.92,0,0,1-38.36-13.16c-26.41-12.64-49.91-32-72.64-50.68l-.11-.09c-6.69-5.51-13.84-11.36-21.13-17.06-23.52-18.38-55.1-40.2-90.83-45.87a100.18,100.18,0,0,0-13-1.21A97.8,97.8,0,0,0,0,147v13.36c.91-.62,1.83-1.23,2.77-1.82a96.66,96.66,0,0,1,54.57-14.23,104.43,104.43,0,0,1,12.75,1.4c34.33,5.95,64,26.31,88.58,45.44,7,5.42,13.91,11.08,20.64,16.54,20.88,17,44.56,36.23,71.24,48.23A166.17,166.17,0,0,0,288,267.67c31.85,6,84.47,4.8,154.27-34.62,9.47-5.37,18.83-11.22,27.89-16.88,30.25-18.9,58.83-36.76,93.52-39.74,37.25-3.2,76.79,10.17,120.89,40.89,16.53,11.56,32.62,24.66,48.19,37.32,17.49,14.24,35.57,29,54.5,41.7,34.5,23.19,69.51,37.55,104,42.67,61.42,9.1,130.55-10.25,194.65-54.5,16.49-11.38,32.65-23.78,48.27-35.76,16.32-12.52,33.19-25.46,50.41-37.22,18.94-12.92,36.34-22.88,53.19-30.46a205,205,0,0,1,59.35-17c36.06-4.39,70.35,3.17,95.84,20.46V173.18a114.42,114.42,0,0,0-31.5-15A145.8,145.8,0,0,0,1301.19,153.39Z" fill="#132953"/><path d="M1324.66,83.14c-17,2.6-34.15,8.92-51,18.77-14.12,8.23-28.29,18.9-43.32,32.62-11.53,10.55-22.66,21.93-33.43,32.94-14.23,14.54-29,29.58-44.83,43C1105.71,249.49,1045.56,271,985.65,271a243.48,243.48,0,0,1-37.08-2.81,241.89,241.89,0,0,1-108.92-46c-20.14-15.25-38.26-33.47-55.78-51.08-14-14.09-28.51-28.67-43.93-41.59C686,84.42,642.65,81,615.78,86c-36.54,6.83-62.86,32.16-90.73,59-12.64,12.16-25.7,24.74-39.73,35.3-52.93,39.82-125.21,52-184.13,30.94a213.3,213.3,0,0,1-42.6-21.07c-24-15.18-46-34.72-67.34-53.61-4.36-3.86-8.71-7.73-13.08-11.55-8.91-7.8-16.83-14.43-24.21-20.26C114.78,73.77,80.77,58,46.94,55a101.53,101.53,0,0,0-15.22-.17A109.55,109.55,0,0,0,0,61.82V74.73a109,109,0,0,1,35.32-7.94,102.53,102.53,0,0,1,15,.35c33,3.22,66.31,18.86,104.84,49.23,7.24,5.7,14.78,12,23.74,19.75q5.47,4.75,10.94,9.56c21.51,18.83,43.74,38.31,68.06,53.1a205.48,205.48,0,0,0,41.69,19.66C328,228,360,230,392,224.13a213.11,213.11,0,0,0,86.67-37c13.53-9.85,26.26-21.5,38.57-32.76,28.09-25.7,54.62-50,91-56.29,48.56-8.43,94.45,18.93,124.4,43.36,15.56,12.74,30.25,27.09,44.46,41,17.54,17.13,35.68,34.85,55.64,49.72a242.82,242.82,0,0,0,107.84,45.37c69.54,10.62,144.88-10.72,201.54-57.11,16-13.11,31-27.77,45.54-42,11.48-11.2,23.35-22.79,35.61-33.51,15.64-13.66,30.32-24.27,44.88-32.42,17.36-9.77,35-16,52.51-18.62a112.47,112.47,0,0,1,55.61,5.88,94.52,94.52,0,0,1,16.79,8.34V96.36a90.37,90.37,0,0,0-14.28-7.19A105.28,105.28,0,0,0,1324.66,83.14Z" fill="#132953"/><path d="M1293.37,176.81a214.19,214.19,0,0,0-60.21,16.62c-17.19,7.46-35,17.29-54.42,30-18.09,11.89-35.85,25-53,37.76-15.74,11.65-32,23.7-48.57,34.8-30.6,20.53-61.85,35.74-92.9,45.2-24.41,7.45-48.32,11.19-71.4,11.19a205.34,205.34,0,0,1-29.9-2.17c-34.34-5.06-68.31-18.92-103.83-42.37C760.4,295.51,742.4,281.32,725,267.6c-15.86-12.5-32.25-25.43-49-36.8-44.43-30.1-82.46-42.91-119.67-40.31-34.68,2.42-64,19.34-95.08,37.25-8,4.61-16.26,9.38-24.57,13.84-56.56,30.29-107.29,42.15-150.77,35.28a159.56,159.56,0,0,1-36.95-10.53c-25.07-10.54-46.62-27-70.19-46l-2.8-2.25c-5.66-4.54-11.5-9.23-17.31-13.75-23.91-18.6-52.75-38.45-85.43-44.61A101.45,101.45,0,0,0,61,158.2c-21-1.37-44.12,5-60.95,18V190c17.22-14.84,42.31-21.82,64.69-19.89a103.88,103.88,0,0,1,12,1.75c31.43,6.44,59.67,25.94,83.15,44.17,4.74,3.67,9.52,7.47,14.15,11.15l5.45,4.32c21.85,17.29,43.54,33.61,68.66,43.42a152.18,152.18,0,0,0,36,9.15c41.06,5.23,87.46-6.13,146-35.72,6.77-3.43,13.57-7,20.14-10.51,32.44-17.19,63.08-33.42,98.57-35.29,37.14-2,75.18,10.76,119.71,40.06,17.05,11.25,33.82,24,50,36.41,17.27,13.17,35.12,26.79,53.51,38.72,35.82,23.21,69.44,36.88,102.79,41.77,41,6,107.67,1.59,192.35-53.62,16.58-10.81,33-22.52,48.78-33.84,18.06-12.92,36.74-26.29,55.75-38.32,20-12.65,38.31-22.4,56-29.8a225.44,225.44,0,0,1,61.62-16.41c39.34-4.5,76.08,3.47,103.66,22V198.27C1366.63,180.09,1331.39,172.33,1293.37,176.81Z" fill="#132953"/><path d="M0,0V19.12a110.76,110.76,0,0,1,37.14-4.35c56.39,3.34,105.23,41.12,141.48,73.66,6.51,5.83,13.08,11.89,19.44,17.74,33.15,30.53,67.43,62.1,109.26,79.45,63.74,26.45,142.35,14.73,195.61-29.15,15.15-12.48,29-27.7,42.34-42.42,26.6-29.3,54.11-59.6,92.59-68.25,21.18-4.77,43.89-2.41,67.48,7,20,8,40.47,21.11,59.26,38,15.17,13.65,29.2,29,42.77,43.82,17.31,18.92,35.21,38.49,55.61,54.65,90,71.31,232,66.07,316.49-11.68,15.16-13.95,28.68-30,41.75-45.5,8.89-10.54,18.08-21.45,27.71-31.62,29.4-31,58-48.5,87.3-53.45a89.72,89.72,0,0,1,51.51,6.73c1.81.82,3.55,1.71,5.26,2.64V0Z" fill="#132953"/><path d="M1332.49,59.72c-16.24,2.66-32.64,9.15-48.74,19.31-13.4,8.45-26.66,19.33-40.54,33.26-10.22,10.27-20,21.31-29.5,32-13.5,15.22-27.47,31-42.93,44.76-44.56,39.81-104.63,61.7-166.23,61.7a258.49,258.49,0,0,1-39.57-3c-40.86-6.33-79-22.55-110.19-46.91-20.36-15.9-38.36-35-55.77-53.55-13.7-14.57-27.86-29.64-43.09-43C699.38,54.55,653.16,55.1,630.64,59.84c-37.59,8.06-63.8,35.7-91.54,65-13.17,13.89-26.78,28.24-41.61,40.12-26.16,20.94-58.16,34.85-92.54,40.24C370.4,210.57,335.84,207,305,194.76a228.07,228.07,0,0,1-44-23.7c-23.31-15.8-44.84-35.38-65.66-54.32-5.67-5.15-11.53-10.48-17.32-15.64C168.93,93,160.67,86,152.78,79.78,112,47.48,76.26,31.3,40.37,28.86a102.82,102.82,0,0,0-16,.18A112.27,112.27,0,0,0,0,34V46.83A112.28,112.28,0,0,1,28,41a103.5,103.5,0,0,1,15.75,0C78.81,43.67,113.84,59.72,154,91.45c7.65,6,15.76,12.86,24.77,20.82,5.08,4.49,10.23,9.12,15.21,13.59,21,18.89,42.78,38.42,66.38,53.89A219.68,219.68,0,0,0,303.46,202c60.68,22.88,134.22,11,187.33-30.24,14.39-11.19,27.72-24.64,40.61-37.65,26.68-26.92,54.26-54.75,91.62-62.22,52.22-10.44,101.09,23.21,125.57,44.19,15.35,13.18,29.69,28,43.56,42.36,17.44,18,35.48,36.7,55.68,52.22A239.2,239.2,0,0,0,956.92,257c72.85,11.23,149-10.44,203.84-58,15.64-13.57,30-28.94,43.85-43.81,10.12-10.84,20.58-22.06,31.46-32.48,14.51-13.88,28.28-24.7,42.11-33.08,16.6-10.07,33.5-16.52,50.24-19.16,20.76-3.28,45.14.34,64.58,11.79V70.48a83.13,83.13,0,0,0-8.54-4.31A93.94,93.94,0,0,0,1332.49,59.72Z" fill="#132953"/></svg>