<svg xmlns="http://www.w3.org/2000/svg" width="93.93" height="17" viewBox="0 0 93.93 17"><title>encon-logo-sm</title><path d="M52.14,0a8.49,8.49,0,1,0,8.49,8.49A8.49,8.49,0,0,0,52.14,0Zm0,11.89a3.4,3.4,0,1,1,3.4-3.4A3.4,3.4,0,0,1,52.14,11.89Z"/><path d="M41.29,10.5a3.4,3.4,0,1,1,0-4,11,11,0,0,1,2.23-4.88,8.49,8.49,0,1,0,0,13.77A11,11,0,0,1,41.29,10.5Z"/><polygon points="75.71 15.3 75.71 0.04 70.62 0.04 70.62 6.49 75.71 15.3"/><polygon points="85.6 14.46 84.13 17 78.25 17 82.66 9.37 85.6 14.46"/><polygon points="89.52 7.67 93.93 0.04 88.05 0.04 86.58 2.58 89.52 7.67"/><polygon points="84.13 0.04 78.25 0.04 88.05 17 93.93 17 84.13 0.04"/><polygon points="20.98 0.04 15.1 0.04 24.89 17 30.77 17 20.98 0.04"/><polygon points="65.92 0.04 60.04 0.04 69.83 17 75.71 17 65.92 0.04"/><path d="M27.59,8.52a11,11,0,0,1,4-8.48H24.89V5.13L27.69,10A11.06,11.06,0,0,1,27.59,8.52Z"/><path d="M63.22,8.52a11,11,0,0,1-4,8.48h6.69V11.91l-2.8-4.84A11.06,11.06,0,0,1,63.22,8.52Z"/><polygon points="15.1 1.73 15.1 17 20.19 17 20.19 10.55 15.1 1.73"/><rect y="0.04" width="12.56" height="5.09"/><polygon points="2.38 5.97 0 5.97 0 17 0.01 17 0.01 17 12.56 17 12.56 11.91 5.09 11.91 5.09 11.06 12.56 11.06 12.56 5.97 5.09 5.97 2.38 5.97"/></svg>