<svg xmlns="http://www.w3.org/2000/svg" width="307" height="104.07" viewBox="0 0 307 104.07"><title>squiggle-flipped</title><path d="M69.29,49v5.51a19.73,19.73,0,0,1-39.46,0V49H0v6.07H0a49.55,49.55,0,0,0,99.1,0h0V49Z" fill="#b2cdfa"/><path d="M168.4,49a49.55,49.55,0,0,0-99.1,0h0v6.07H99.12V49.56a19.73,19.73,0,1,1,39.46,0v5.51h29.83V49Z" fill="#b2cdfa"/><path d="M207.88,49v5.51a19.73,19.73,0,0,1-39.46,0V49H138.58v6.07h0a49.55,49.55,0,0,0,99.1,0h0V49Z" fill="#b2cdfa"/><path d="M307,49a49.55,49.55,0,0,0-99.1,0h0v6.07h29.83V49.56a19.73,19.73,0,1,1,39.46,0v5.51H307V49Z" fill="#b2cdfa"/></svg>