<svg xmlns="http://www.w3.org/2000/svg" width="307" height="104.07" viewBox="0 0 307 104.07"><title>squiggle</title><path d="M99.11,49A49.55,49.55,0,0,0,0,49H0v6.07H29.83V49.56a19.73,19.73,0,1,1,39.46,0v5.51H99.12V49Z" fill="#b2cdfa"/><path d="M138.58,49v5.51a19.73,19.73,0,1,1-39.46,0V49H69.29v6.07h0a49.55,49.55,0,0,0,99.1,0h0V49Z" fill="#b2cdfa"/><path d="M237.69,49a49.55,49.55,0,0,0-99.1,0h0v6.07h29.83V49.56a19.73,19.73,0,1,1,39.46,0v5.51h29.83V49Z" fill="#b2cdfa"/><path d="M277.17,49v5.51a19.73,19.73,0,1,1-39.46,0V49H207.88v6.07h0a49.55,49.55,0,0,0,99.1,0h0V49Z" fill="#b2cdfa"/></svg>