<svg xmlns="http://www.w3.org/2000/svg"><symbol viewBox="0 0 7.72 13.72" id="icon-caret"><title>caret</title><path d="M7.46,7.46l-6,6a.85.85,0,0,1-.6.25A.86.86,0,0,1,0,12.86V.86A.86.86,0,0,1,.86,0a.85.85,0,0,1,.6.25l6,6a.84.84,0,0,1,0,1.21Z"/></symbol><symbol viewBox="0 0 20 20" id="icon-checkbox-selected"><title>checkbox-selected</title><rect width="20" height="20"/></symbol><symbol viewBox="0 0 20 20" id="icon-checkbox"><title>checkbox</title><path d="M20,20H0V0H20ZM4,16H16V4H4Z"/></symbol><symbol viewBox="0 0 153 153" id="icon-circle"><title>circle</title><path d="M76.5,0A76.5,76.5,0,1,0,153,76.5,76.5,76.5,0,0,0,76.5,0Zm0,107.1a30.6,30.6,0,1,1,30.6-30.6A30.6,30.6,0,0,1,76.5,107.1Z" fill="#b2cdfa"/></symbol><symbol viewBox="0 0 93.93 17" id="icon-encon-logo-sm"><title>encon-logo-sm</title><path d="M52.14,0a8.49,8.49,0,1,0,8.49,8.49A8.49,8.49,0,0,0,52.14,0Zm0,11.89a3.4,3.4,0,1,1,3.4-3.4A3.4,3.4,0,0,1,52.14,11.89Z"/><path d="M41.29,10.5a3.4,3.4,0,1,1,0-4,11,11,0,0,1,2.23-4.88,8.49,8.49,0,1,0,0,13.77A11,11,0,0,1,41.29,10.5Z"/><polygon points="75.71 15.3 75.71 0.04 70.62 0.04 70.62 6.49 75.71 15.3"/><polygon points="85.6 14.46 84.13 17 78.25 17 82.66 9.37 85.6 14.46"/><polygon points="89.52 7.67 93.93 0.04 88.05 0.04 86.58 2.58 89.52 7.67"/><polygon points="84.13 0.04 78.25 0.04 88.05 17 93.93 17 84.13 0.04"/><polygon points="20.98 0.04 15.1 0.04 24.89 17 30.77 17 20.98 0.04"/><polygon points="65.92 0.04 60.04 0.04 69.83 17 75.71 17 65.92 0.04"/><path d="M27.59,8.52a11,11,0,0,1,4-8.48H24.89V5.13L27.69,10A11.06,11.06,0,0,1,27.59,8.52Z"/><path d="M63.22,8.52a11,11,0,0,1-4,8.48h6.69V11.91l-2.8-4.84A11.06,11.06,0,0,1,63.22,8.52Z"/><polygon points="15.1 1.73 15.1 17 20.19 17 20.19 10.55 15.1 1.73"/><rect y="0.04" width="12.56" height="5.09"/><polygon points="2.38 5.97 0 5.97 0 17 0.01 17 0.01 17 12.56 17 12.56 11.91 5.09 11.91 5.09 11.06 12.56 11.06 12.56 5.97 5.09 5.97 2.38 5.97"/></symbol><symbol viewBox="0 0 99 55" id="icon-half-circle"><title>half-circle</title><path d="M69.2,0V5.5a19.7,19.7,0,1,1-39.41,0V0H0V6.06H0a49.49,49.49,0,0,0,99,0h0V0Z" fill="#b2cdfa"/></symbol><symbol viewBox="0 0 10 10" id="icon-square"><title>square</title><rect width="10" height="10" fill="#d54544"/></symbol><symbol viewBox="0 0 307 104.07" id="icon-squiggle-flipped"><title>squiggle-flipped</title><path d="M69.29,49v5.51a19.73,19.73,0,0,1-39.46,0V49H0v6.07H0a49.55,49.55,0,0,0,99.1,0h0V49Z" fill="#b2cdfa"/><path d="M168.4,49a49.55,49.55,0,0,0-99.1,0h0v6.07H99.12V49.56a19.73,19.73,0,1,1,39.46,0v5.51h29.83V49Z" fill="#b2cdfa"/><path d="M207.88,49v5.51a19.73,19.73,0,0,1-39.46,0V49H138.58v6.07h0a49.55,49.55,0,0,0,99.1,0h0V49Z" fill="#b2cdfa"/><path d="M307,49a49.55,49.55,0,0,0-99.1,0h0v6.07h29.83V49.56a19.73,19.73,0,1,1,39.46,0v5.51H307V49Z" fill="#b2cdfa"/></symbol><symbol viewBox="0 0 307 104.07" id="icon-squiggle"><title>squiggle</title><path d="M99.11,49A49.55,49.55,0,0,0,0,49H0v6.07H29.83V49.56a19.73,19.73,0,1,1,39.46,0v5.51H99.12V49Z" fill="#b2cdfa"/><path d="M138.58,49v5.51a19.73,19.73,0,1,1-39.46,0V49H69.29v6.07h0a49.55,49.55,0,0,0,99.1,0h0V49Z" fill="#b2cdfa"/><path d="M237.69,49a49.55,49.55,0,0,0-99.1,0h0v6.07h29.83V49.56a19.73,19.73,0,1,1,39.46,0v5.51h29.83V49Z" fill="#b2cdfa"/><path d="M277.17,49v5.51a19.73,19.73,0,1,1-39.46,0V49H207.88v6.07h0a49.55,49.55,0,0,0,99.1,0h0V49Z" fill="#b2cdfa"/></symbol><symbol viewBox="0 0 23 21.39" id="icon-x"><title>x</title><path d="M15.55,10.65l7.31,10.74H15L11.43,15.7,7.85,21.39H0L7.31,10.65.1,0H7.94l3.53,5.35L15.15,0H23Z" fill="#b2cdfa"/></symbol></svg>